<?xml version="1.0" ?><svg id="Layer_1_1_" style="enable-background:new 0 0 64 64;" version="1.1" viewBox="0 0 64 64" xml:space="preserve" xmlns="http://www.w3.org/2000/svg" xmlns:xlink="http://www.w3.org/1999/xlink"><g><rect height="6" style="fill:#AAB2BD;" width="34" x="15" y="2"/><polygon points="53,14 53,8 20,8 18,8 11,8 11,14  " style="fill:#AAB2BD;"/><polygon points="50,14 58,14 56,20 8,20 6,14 48,14  " style="fill:#AAB2BD;"/><rect height="13" style="fill:#AAB2BD;" width="48" x="8" y="38"/><rect height="2" style="fill:#969FAA;" width="48" x="8" y="38"/><path d="M48.258,40.258C45.796,41.006,44,43.297,44,46c0,2.086,1.071,3.924,2.69,5H56V38h-6.451   C48.969,38.645,48.516,39.407,48.258,40.258z" style="fill:#969FAA;"/><rect height="2" style="fill:#969FAA;" width="14" x="42" y="48"/><rect height="2" style="fill:#969FAA;" width="14" x="8" y="48"/><polygon points="42,62 22,62 22,50 22,44 42,44 42,50  " style="fill:#969FAA;"/><path d="M8,51h9.31c1.62-1.076,2.69-2.914,2.69-5c0-2.703-1.796-4.994-4.258-5.742   c-0.258-0.851-0.711-1.613-1.291-2.258H8V51z" style="fill:#969FAA;"/><polygon points="22,50 22,62 26,62 26,48 22,48  " style="fill:#838F9B;"/><rect height="12" style="fill:#B27946;" width="22" x="2" y="50"/><rect height="14" style="fill:#838F9B;" width="4" x="38" y="48"/><rect height="12" style="fill:#B27946;" width="22" x="40" y="50"/><path d="M62,55v-2h-3v-3h-2v3h-4v-3h-2v3h-4v-3h-2v3h-5v2h3v2h-3v2h5v3h2v-3h4v3h2v-3h4v3h2v-3h3v-2h-5v-2   H62z M45,55h4v2h-4V55z M55,57h-4v-2h4V57z" style="fill:#DFB28B;"/><path d="M24,55v-2h-5v-3h-2v3h-4v-3h-2v3H7v-3H5v3H2v2h5v2H2v2h3v3h2v-3h4v3h2v-3h4v3h2v-3h5v-2h-3v-2H24z    M9,55h4v2H9V55z M19,57h-4v-2h4V57z" style="fill:#DFB28B;"/><rect height="14" style="fill:#E6E9ED;" width="4" x="10" y="20"/><rect height="14" style="fill:#E6E9ED;" width="4" x="20" y="20"/><rect height="14" style="fill:#E6E9ED;" width="4" x="30" y="20"/><rect height="14" style="fill:#E6E9ED;" width="4" x="40" y="20"/><rect height="14" style="fill:#E6E9ED;" width="4" x="50" y="20"/><path d="M58,50c2.209,0,4-1.791,4-4c0-2.209-1.791-4-4-4c0-2.209-1.791-4-4-4s-4,1.791-4,4   c-2.209,0-4,1.791-4,4c0,2.209,1.791,4,4,4H58z" style="fill:#A0D468;"/><path d="M14,50c2.209,0,4-1.791,4-4c0-2.209-1.791-4-4-4c0-2.209-1.791-4-4-4s-4,1.791-4,4   c-2.209,0-4,1.791-4,4c0,2.209,1.791,4,4,4H14z" style="fill:#A0D468;"/><rect height="2" style="fill:#969FAA;" width="42" x="11" y="12"/><rect height="2" style="fill:#969FAA;" width="34" x="15" y="6"/><rect height="2" style="fill:#CCD1D9;" width="4" x="10" y="20"/><rect height="2" style="fill:#CCD1D9;" width="4" x="20" y="20"/><rect height="2" style="fill:#CCD1D9;" width="4" x="20" y="32"/><rect height="2" style="fill:#CCD1D9;" width="4" x="30" y="20"/><rect height="2" style="fill:#CCD1D9;" width="4" x="30" y="32"/><rect height="2" style="fill:#CCD1D9;" width="4" x="40" y="20"/><rect height="2" style="fill:#CCD1D9;" width="4" x="40" y="32"/><rect height="2" style="fill:#CCD1D9;" width="4" x="50" y="20"/><rect height="2" style="fill:#CCD1D9;" width="4" x="50" y="32"/><rect height="2" style="fill:#CCD1D9;" width="4" x="10" y="32"/><rect height="4" style="fill:#838F9B;" width="48" x="8" y="34"/><path d="M17.445,48H2.555C3.248,49.191,4.523,50,6,50h8C15.477,50,16.752,49.191,17.445,48z" style="fill:#8CC152;"/><path d="M61.445,48h-14.89c0.693,1.191,1.968,2,3.445,2h8C59.477,50,60.752,49.191,61.445,48z" style="fill:#8CC152;"/></g></svg>